# xmcd
#
# Track frame offsets: 
#        150
#        19813
#        35769
#        50151
#        68334
#        84404
#        100760
#        125437
#        142077
#        160298
#        174495
#        191143
#        206638
#        223812
#        240586
#        250868
#        267306
#        281013
#        289581
#        304903
#
# Disc length: 4315 seconds
#
# Revision: 2
# Processed by: cddbd v1.5.2PL0 Copyright (c) Steve Scherf et al.
# Submitted via: ExactAudioCopy v1.0b3
#
DISCID=3110d914
DTITLE=Various Artist - Anthems 90s - CD3
DYEAR=2012
DGENRE=Electronic
TTITLE0=The Prodigy - No Good (Start The Dance) (Original Mix)
TTITLE1=Basement Jaxx - Fly Life (Original Mix)
TTITLE2=Fatboy Slim - Praise You (Radio Edit)
TTITLE3=Jamiroquai - Space Cowboy (Classic Radio)
TTITLE4=Everything But The Girl - Missing (Todd Terry Remix)
TTITLE5=Wamdue Project - King Of My Castle (Roy Malone Kings Mix edit)
TTITLE6=Ultra Naté - Free (Original)
TTITLE7=Madison Avenue - Don't Call Me Baby (Edit)
TTITLE8=Tina Moore - Never Gonna Let You Go (Kelly G. Bump-N-Go Vocal 
TTITLE8=Edit)
TTITLE9=Reel 2 Real Feat. The Mad Stuntman - I Like To Move It (Radio 
TTITLE9=Mix)
TTITLE10=Mousse T. Vs Hot 'n' Juicy - Horny '98 (Original Mix)
TTITLE11=David Morales Presents The Face Feat. Juliet Roberts - Needin
TTITLE11=' U (Radio Edit)
TTITLE12=Paul Johnson - Get Get Down (Original Mix)
TTITLE13=Phats and Small - Turn Around (Radio Edit)
TTITLE14=Stretch and Vern - I'm Alive 2010
TTITLE15=Perfecto Allstarz - Reach Up (Papa's Got A Brand New Pig Bag)
TTITLE15=(Radio Edit)
TTITLE16=Alice Deejay - Better Off Alone
TTITLE17=Vengaboys - Up and Down (Radio Edit)
TTITLE18=Sash! - Encore Une Fois
TTITLE19=Olive - You're Not Alone (Radio Edit)
EXTD=
EXTT0=
EXTT1=
EXTT2=
EXTT3=
EXTT4=
EXTT5=
EXTT6=
EXTT7=
EXTT8=
EXTT9=
EXTT10=
EXTT11=
EXTT12=
EXTT13=
EXTT14=
EXTT15=
EXTT16=
EXTT17=
EXTT18=
EXTT19=
PLAYORDER=
